<svg width="96" height="96" viewBox="0 0 96 96" fill="none" xmlns="http://www.w3.org/2000/svg">
  <rect width="96" height="96" rx="24" fill="#07110F"/>
  <path d="M22 50C22 35.64 33.64 24 48 24C62.36 24 74 35.64 74 50C74 57.74 70.62 64.7 65.26 69.46L74 78H59.38C55.92 79.28 52.08 80 48 80C33.64 80 22 68.36 22 54V50Z" fill="url(#paint0_linear)"/>
  <path d="M36 48.5C36 41.6 41.6 36 48.5 36C55.4 36 61 41.6 61 48.5C61 55.4 55.4 61 48.5 61C41.6 61 36 55.4 36 48.5Z" fill="#07110F" fill-opacity="0.9"/>
  <path d="M56 57L69 70" stroke="#07110F" stroke-width="8" stroke-linecap="round"/>
  <defs>
    <linearGradient id="paint0_linear" x1="22" y1="24" x2="78" y2="78" gradientUnits="userSpaceOnUse">
      <stop stop-color="#8FFFC1"/>
      <stop offset="1" stop-color="#74F7FF"/>
    </linearGradient>
  </defs>
</svg>
